HIERARCHY
ROOT Hips
{
 OFFSET 0.000000 0.000000 0.000000
 CHANNELS 6 Xposition Yposition Zposition Yrotation Xrotation Zrotation
 JOINT Chest
 {
  OFFSET 0.000000 9.585900 0.002600
  CHANNELS 3 Yrotation Xrotation Zrotation
  JOINT Chest2
  {
   OFFSET 0.000000 9.601200 -0.005300
   CHANNELS 3 Yrotation Xrotation Zrotation
   JOINT Chest3
   {
    OFFSET 0.000000 9.561800 0.000000
    CHANNELS 3 Yrotation Xrotation Zrotation
    JOINT Chest4
    {
     OFFSET 0.000000 9.552100 0.000000
     CHANNELS 3 Yrotation Xrotation Zrotation
     JOINT Neck
     {
      OFFSET 0.000000 14.453000 0.000000
      CHANNELS 3 Yrotation Xrotation Zrotation
      JOINT Head
      {
       OFFSET 0.000000 8.936500 -0.011300
       CHANNELS 3 Yrotation Xrotation Zrotation
       End Site
       {
        OFFSET 0.000000 17.073600 -0.006000
       }
      }
     }
     JOINT RightCollar
     {
      OFFSET -2.921100 9.558500 0.000000
      CHANNELS 3 Yrotation Xrotation Zrotation
      JOINT RightShoulder
      {
       OFFSET -13.519700 0.000000 0.000000
       CHANNELS 3 Yrotation Xrotation Zrotation
       JOINT RightElbow
       {
        OFFSET 0.000000 -29.696600 0.000000
        CHANNELS 3 Yrotation Xrotation Zrotation
        JOINT RightWrist
        {
         OFFSET 0.000000 -24.004700 0.000000
         CHANNELS 3 Yrotation Xrotation Zrotation
         End Site
         {
          OFFSET 0.000000 -17.728500 0.000000
         }
        }
       }
      }
     }
     JOINT LeftCollar
     {
      OFFSET 2.921100 9.558500 0.000000
      CHANNELS 3 Yrotation Xrotation Zrotation
      JOINT LeftShoulder
      {
       OFFSET 13.519700 0.000000 0.000000
       CHANNELS 3 Yrotation Xrotation Zrotation
       JOINT LeftElbow
       {
        OFFSET 0.000000 -29.696600 0.000000
        CHANNELS 3 Yrotation Xrotation Zrotation
        JOINT LeftWrist
        {
         OFFSET 0.000000 -24.004700 0.000000
         CHANNELS 3 Yrotation Xrotation Zrotation
         End Site
         {
          OFFSET 0.000000 -17.728500 0.000000
         }
        }
       }
      }
     }
    }
   }
  }
 }
 JOINT RightHip
 {
  OFFSET -7.771700 -0.012900 -0.001300
  CHANNELS 3 Yrotation Xrotation Zrotation
  JOINT RightKnee
  {
   OFFSET 0.000000 -40.869800 0.001200
   CHANNELS 3 Yrotation Xrotation Zrotation
   JOINT RightAnkle
   {
    OFFSET 0.000000 -39.717900 0.002100
    CHANNELS 3 Yrotation Xrotation Zrotation
    JOINT RightToe
    {
     OFFSET 0.000000 -4.965400 11.033500
     CHANNELS 3 Yrotation Xrotation Zrotation
     End Site
     {
      OFFSET 0.000000 -1.423100 5.872300
     }
    }
   }
  }
 }
 JOINT LeftHip
 {
  OFFSET 7.771700 -0.012900 -0.001300
  CHANNELS 3 Yrotation Xrotation Zrotation
  JOINT LeftKnee
  {
   OFFSET 0.000000 -40.869800 0.001200
   CHANNELS 3 Yrotation Xrotation Zrotation
   JOINT LeftAnkle
   {
    OFFSET 0.000000 -39.717900 0.002100
    CHANNELS 3 Yrotation Xrotation Zrotation
    JOINT LeftToe
    {
     OFFSET 0.000000 -4.965400 11.033500
     CHANNELS 3 Yrotation Xrotation Zrotation
     End Site
     {
      OFFSET 0.000000 -1.423100 5.872300
     }
    }
   }
  }
 }
}
MOTION
Frames: 8
Frame Time: 0.008333
-52.424269 57.940635 14.820606 164.065685 -2.308094 0.140107 2.900276 3.016165 2.401894 0.127371 0.089512 0.063279 0.133942 0.152324 0.066980 2.754737 3.086174 1.427374 3.226552 18.281333 -1.704255 6.443286 -1.667413 -4.185428 -0.346046 3.047314 -1.775496 13.678610 -11.911432 -20.469760 45.874062 -38.194498 -18.752493 1.014470 4.964790 -43.097856 -1.161668 4.013263 2.710058 -7.369237 -11.732995 9.586250 -51.597803 -47.056371 20.711457 -4.711717 -2.946081 31.336286 -23.998054 -68.017870 13.313788 -35.921417 72.750085 -36.161316 -3.356088 -9.588888 -1.997927 -0.487876 1.273735 -0.091661 4.267385 -72.656748 10.198514 40.189605 66.490173 32.516899 -17.826280 -11.005335 6.292351 -0.506344 -1.613734 -0.150493
-52.432769 57.945245 14.799813 164.113996 -2.283120 0.153910 2.902841 2.994333 2.412946 0.125629 0.086231 0.063950 0.109227 0.151321 0.053625 2.746635 3.078987 1.426656 3.286145 18.267898 -1.694120 6.523172 -1.666845 -4.202825 -0.243223 3.008997 -1.740964 13.848572 -11.932544 -20.533336 45.719508 -38.016132 -18.679389 1.004210 4.881152 -43.093788 -1.184852 3.978118 2.680258 -7.473869 -11.747079 9.620236 -51.463387 -46.929191 20.638168 -4.695910 -2.981734 31.506210 -23.797904 -68.074405 13.173001 -36.198742 72.734289 -36.460980 -3.438325 -9.564138 -1.937218 -0.452803 1.235104 -0.078600 4.319015 -72.627860 10.152697 40.107008 66.463154 32.378909 -17.930321 -11.081195 6.285148 -0.430841 -1.511113 -0.108484
-52.447534 57.951590 14.780532 164.191298 -2.245032 0.194794 2.877367 2.957907 2.396337 0.117307 0.084399 0.063414 0.089032 0.150827 0.040597 2.750640 3.061092 1.437589 3.288306 18.275859 -1.705901 6.641027 -1.677502 -4.229401 -0.147254 2.985078 -1.712872 14.008089 -11.951638 -20.601852 45.567587 -37.852712 -18.604902 0.991567 4.803868 -43.104393 -1.237376 3.862621 2.604115 -7.602973 -11.674501 9.683609 -51.287891 -46.779846 20.542420 -4.679907 -3.033775 31.706270 -23.690155 -68.139695 13.044124 -36.316721 72.737920 -36.640728 -3.458677 -9.555684 -1.837042 -0.472025 1.214459 -0.117405 4.408420 -72.641497 9.994993 40.088999 66.447589 32.334246 -17.966515 -11.071573 6.267248 -0.403995 -1.509890 -0.071776
-52.466140 57.960294 14.756628 164.240283 -2.233346 0.259830 2.868493 2.948493 2.357876 0.115340 0.083207 0.060355 0.088355 0.149019 0.043164 2.750733 3.023826 1.456490 3.270424 18.305417 -1.738116 6.757245 -1.688500 -4.259991 -0.058487 2.986320 -1.700178 14.159402 -11.970365 -20.674040 45.422135 -37.698304 -18.530572 0.975095 4.730160 -43.133305 -1.302818 3.806650 2.526440 -7.753209 -11.652216 9.740077 -51.086312 -46.609882 20.431354 -4.659530 -3.097609 31.932608 -23.472045 -68.188405 12.829160 -36.438321 72.736085 -36.829125 -3.471117 -9.555751 -1.765243 -0.495273 1.206367 -0.115085 4.617238 -72.554815 9.771721 39.911886 66.396083 32.103671 -18.074212 -11.215832 6.247833 -0.323312 -1.329602 -0.028000
-52.485048 57.971218 14.737283 164.304962 -2.201558 0.311541 2.846858 2.918178 2.328922 0.105862 0.082188 0.056494 0.095082 0.147022 0.046410 2.732524 3.002095 1.462046 3.363332 18.289298 -1.737629 6.787732 -1.672816 -4.278203 0.054529 2.976202 -1.666261 14.305900 -11.989061 -20.748562 45.282526 -37.546930 -18.458348 0.955220 4.665380 -43.181891 -1.351616 3.756931 2.478013 -7.917863 -11.662079 9.793069 -50.875567 -46.422357 20.313573 -4.629151 -3.165991 32.182411 -23.315108 -68.246055 12.668159 -36.553242 72.725912 -37.013825 -3.469072 -9.555264 -1.733722 -0.541586 1.199698 -0.083800 4.753100 -72.531260 9.580136 39.845459 66.360215 31.989199 -18.106525 -11.258320 6.252212 -0.230324 -1.241619 -0.025221
-52.507883 57.984473 14.718902 164.366409 -2.164799 0.377949 2.816919 2.883374 2.280121 0.095467 0.082171 0.050671 0.132605 0.144583 0.070875 2.676806 2.997404 1.435483 3.437888 18.269251 -1.728321 6.856645 -1.676889 -4.304173 0.193639 2.951980 -1.609407 14.449576 -12.004054 -20.821135 45.151393 -37.394320 -18.398303 0.933196 4.613915 -43.242928 -1.384940 3.693949 2.452986 -8.088692 -11.682742 9.844213 -50.666609 -46.221375 20.194429 -4.593886 -3.232901 32.454603 -23.155708 -68.310268 12.494057 -36.617431 72.718227 -37.157573 -3.477498 -9.553359 -1.656051 -0.581807 1.192673 -0.109108 4.924110 -72.509809 9.352908 39.744722 66.336668 31.823942 -18.107691 -11.286798 6.286270 -0.227741 -1.196450 -0.020065
-52.530526 57.999987 14.698293 164.391875 -2.148139 0.443239 2.820982 2.870069 2.233078 0.070714 0.080823 0.036875 0.138453 0.144464 0.075925 2.668501 2.989920 1.438066 3.497058 18.255273 -1.721961 6.940793 -1.694868 -4.335031 0.340565 2.926356 -1.547672 14.595132 -12.009937 -20.889570 45.026698 -37.239816 -18.355684 0.913538 4.568591 -43.306289 -1.415506 3.634236 2.431341 -8.264972 -11.714063 9.892503 -50.469564 -46.013626 20.078600 -4.558587 -3.296028 32.745181 -23.009384 -68.350244 12.338949 -36.592816 72.723913 -37.228901 -3.438279 -9.541394 -1.570851 -0.669554 1.183531 -0.126068 5.091954 -72.468406 9.156314 39.640198 66.319851 31.680550 -18.140102 -11.320961 6.292728 -0.186155 -1.153783 -0.005981
-52.547818 58.017177 14.679978 164.425423 -2.134122 0.471070 2.840002 2.860707 2.246425 0.042609 0.077198 0.016548 0.125196 0.143068 0.065946 2.671095 2.980214 1.455355 3.544185 18.244472 -1.730832 7.021483 -1.721291 -4.366359 0.480382 2.900878 -1.497970 14.746238 -12.005567 -20.955658 44.903222 -37.088024 -18.325306 0.898626 4.528361 -43.372236 -1.452985 3.579862 2.397320 -8.442924 -11.752891 9.936062 -50.294844 -45.803268 19.971570 -4.521448 -3.355704 33.047760 -22.850223 -68.378143 12.214987 -36.690736 72.700742 -37.395125 -3.469807 -9.512921 -1.477532 -0.681860 1.160136 -0.133232 5.109064 -72.428261 9.103152 39.562792 66.294493 31.565214 -18.177104 -11.364980 6.282018 -0.164883 -1.100795 -0.011380
